<svg xmlns="http://www.w3.org/2000/svg" width="1200" height="675" viewBox="0 0 1200 675">
  <defs><linearGradient id="bg" x1="0" y1="0" x2="1" y2="1"><stop stop-color="#f9fdfe"/><stop offset="1" stop-color="#dff3f5"/></linearGradient><filter id="s"><feDropShadow dx="0" dy="12" stdDeviation="16" flood-color="#082a4a" flood-opacity=".10"/></filter></defs>
  <rect width="1200" height="675" fill="url(#bg)"/><circle cx="1050" cy="75" r="210" fill="none" stroke="#12a8aa" stroke-opacity=".10" stroke-width="2"/><circle cx="1050" cy="75" r="155" fill="none" stroke="#12a8aa" stroke-opacity=".08" stroke-width="2"/>
  <g opacity=".22" fill="#12a8aa"><circle cx="55" cy="55" r="2"/><circle cx="70" cy="55" r="2"/><circle cx="85" cy="55" r="2"/><circle cx="100" cy="55" r="2"/><circle cx="115" cy="55" r="2"/><circle cx="130" cy="55" r="2"/><circle cx="145" cy="55" r="2"/><circle cx="160" cy="55" r="2"/><circle cx="175" cy="55" r="2"/><circle cx="55" cy="70" r="2"/><circle cx="70" cy="70" r="2"/><circle cx="85" cy="70" r="2"/><circle cx="100" cy="70" r="2"/><circle cx="115" cy="70" r="2"/><circle cx="130" cy="70" r="2"/><circle cx="145" cy="70" r="2"/><circle cx="160" cy="70" r="2"/><circle cx="175" cy="70" r="2"/><circle cx="55" cy="85" r="2"/><circle cx="70" cy="85" r="2"/><circle cx="85" cy="85" r="2"/><circle cx="100" cy="85" r="2"/><circle cx="115" cy="85" r="2"/><circle cx="130" cy="85" r="2"/><circle cx="145" cy="85" r="2"/><circle cx="160" cy="85" r="2"/><circle cx="175" cy="85" r="2"/><circle cx="55" cy="100" r="2"/><circle cx="70" cy="100" r="2"/><circle cx="85" cy="100" r="2"/><circle cx="100" cy="100" r="2"/><circle cx="115" cy="100" r="2"/><circle cx="130" cy="100" r="2"/><circle cx="145" cy="100" r="2"/><circle cx="160" cy="100" r="2"/><circle cx="175" cy="100" r="2"/></g>
  <path d="M306 338h196M688 338h196" stroke="#12a8aa" stroke-width="4" stroke-dasharray="9 12"/><path d="M486 326l18 12-18 12M868 326l18 12-18 12" fill="none" stroke="#12a8aa" stroke-width="5" stroke-linecap="round" stroke-linejoin="round"/>
  <g filter="url(#s)"><rect x="142" y="268" width="152" height="140" rx="24" fill="#fff" opacity=".94"/><rect x="142" y="268" width="152" height="140" rx="24" stroke="#0b536e" stroke-width="5" stroke-linecap="round" stroke-linejoin="round" fill="none" opacity=".13"/><path d="M185 293h44l25 25v65h-69z" stroke="#0b536e" stroke-width="5" stroke-linecap="round" stroke-linejoin="round" fill="none"/><path d="M229 293v25h25" stroke="#12a8aa" stroke-width="5" stroke-linecap="round" stroke-linejoin="round" fill="none"/><path d="M197 362h44" stroke="#12a8aa" stroke-width="14"/><path d="M203 362h32" stroke="#fff" stroke-width="3"/><rect x="524" y="268" width="152" height="140" rx="24" fill="#fff" opacity=".94"/><rect x="524" y="268" width="152" height="140" rx="24" stroke="#0b536e" stroke-width="5" stroke-linecap="round" stroke-linejoin="round" fill="none" opacity=".13"/><circle cx="600" cy="338" r="34" stroke="#0b536e" stroke-width="5" stroke-linecap="round" stroke-linejoin="round" fill="none"/><circle cx="600" cy="338" r="12" stroke="#12a8aa" stroke-width="5" stroke-linecap="round" stroke-linejoin="round" fill="none"/><path d="M600 289v15M600 372v15M551 338h15M634 338h15M565 303l11 11M624 362l11 11M635 303l-11 11M576 362l-11 11" stroke="#0b536e" stroke-width="5" stroke-linecap="round" stroke-linejoin="round" fill="none"/><rect x="906" y="268" width="152" height="140" rx="24" fill="#fff" opacity=".94"/><rect x="906" y="268" width="152" height="140" rx="24" stroke="#0b536e" stroke-width="5" stroke-linecap="round" stroke-linejoin="round" fill="none" opacity=".13"/><rect x="936" y="299" width="92" height="78" rx="4" stroke="#0b536e" stroke-width="5" stroke-linecap="round" stroke-linejoin="round" fill="none"/><path d="M948 311h29v24h-29zM988 311h28v54H988zM948 346h29v19h-29z" stroke="#12a8aa" stroke-width="5" stroke-linecap="round" stroke-linejoin="round" fill="none"/></g>
  <g fill="#0b536e" font-family="Arial, sans-serif" font-size="18" font-weight="700" text-anchor="middle" letter-spacing="2"><text x="218" y="455">01</text><text x="600" y="455">02</text><text x="982" y="455">03</text></g>
  <path d="M70 575h1060" stroke="#0b536e" stroke-opacity=".08"/><rect x="70" y="593" width="92" height="5" rx="3" fill="#12a8aa"/><rect x="170" y="593" width="42" height="5" rx="3" fill="#0b536e" opacity=".22"/>
  </svg>